<!DOCTYPE svg PUBLIC "-//W3C//DTD SVG 1.1//EN" "http://www.w3.org/Graphics/SVG/1.1/DTD/svg11.dtd">
<!-- Uploaded to: SVG Repo, www.svgrepo.com, Transformed by: SVG Repo Mixer Tools -->
<svg height="800px" width="800px" version="1.1" id="Layer_1" xmlns="http://www.w3.org/2000/svg" xmlns:xlink="http://www.w3.org/1999/xlink" viewBox="0 0 512 512" xml:space="preserve" fill="#212121">
<g id="SVGRepo_bgCarrier" stroke-width="0"/>
<g id="SVGRepo_tracerCarrier" stroke-linecap="round" stroke-linejoin="round"/>
<g id="SVGRepo_iconCarrier"> <g transform="translate(1)"> <polygon style="fill:#fff39c;" points="492.653,193.707 335.64,36.693 239.213,133.12 239.213,8.533 17.347,8.533 17.347,503.467 239.213,503.467 239.213,447.147 "/> <polygon style="fill:#FFA800;" points="467.053,193.707 322.84,49.493 335.64,36.693 492.653,193.707 239.213,447.147 239.213,503.467 213.613,503.467 213.613,447.147 "/> <polygon style="fill:#FFFFFF;" points="17.347,503.467 42.947,503.467 42.947,8.533 17.347,8.533 "/> <path d="M128.28,34.133c-5.12,0-8.533-3.413-8.533-8.533V8.533c0-5.12,3.413-8.533,8.533-8.533c5.12,0,8.533,3.413,8.533,8.533 V25.6C136.813,30.72,133.4,34.133,128.28,34.133z"/> <path d="M128.28,445.44c-5.12,0-8.533-3.413-8.533-8.533v-33.28c0-5.12,3.413-8.533,8.533-8.533c5.12,0,8.533,3.413,8.533,8.533 v33.28C136.813,442.027,133.4,445.44,128.28,445.44z M128.28,363.52c-5.12,0-8.533-3.413-8.533-8.533v-33.28 c0-5.12,3.413-8.533,8.533-8.533c5.12,0,8.533,3.413,8.533,8.533v33.28C136.813,359.253,133.4,363.52,128.28,363.52z M128.28,280.747c-5.12,0-8.533-3.413-8.533-8.533v-33.28c0-5.12,3.413-8.533,8.533-8.533c5.12,0,8.533,3.413,8.533,8.533v33.28 C136.813,277.333,133.4,280.747,128.28,280.747z M128.28,198.827c-5.12,0-8.533-3.413-8.533-8.533v-33.28 c0-5.12,3.413-8.533,8.533-8.533c5.12,0,8.533,3.413,8.533,8.533v33.28C136.813,194.56,133.4,198.827,128.28,198.827z M128.28,116.053c-5.12,0-8.533-3.413-8.533-8.533V75.093c0-5.12,3.413-8.533,8.533-8.533c5.12,0,8.533,3.413,8.533,8.533v33.28 C136.813,112.64,133.4,116.053,128.28,116.053z"/> <path d="M128.28,512c-5.12,0-8.533-3.413-8.533-8.533V486.4c0-5.12,3.413-8.533,8.533-8.533c5.12,0,8.533,3.413,8.533,8.533v17.067 C136.813,508.587,133.4,512,128.28,512z"/> <path d="M402.2,135.68c-2.56,0-4.267-0.853-5.973-2.56c-3.413-3.413-3.413-8.533,0-11.947l11.947-11.947 c3.413-3.413,8.533-3.413,11.947,0c3.413,3.413,3.413,8.533,0,11.947l-11.947,11.947C406.467,134.827,403.907,135.68,402.2,135.68z "/> <path d="M286.147,251.733c-2.56,0-4.267-0.853-5.973-2.56c-3.413-3.413-3.413-8.533,0-11.947l23.04-23.04 c3.413-3.413,8.533-3.413,11.947,0c3.413,3.413,3.413,8.533,0,11.947l-23.04,23.04C290.413,250.88,288.707,251.733,286.147,251.733 z M344.173,193.707c-2.56,0-4.267-0.853-5.973-2.56c-3.413-3.413-3.413-8.533,0-11.947l23.04-23.04 c3.413-3.413,8.533-3.413,11.947,0c3.413,3.413,3.413,8.533,0,11.947l-23.04,23.04C348.44,192.853,345.88,193.707,344.173,193.707z "/> <path d="M239.213,298.667c-2.56,0-4.267-0.853-5.973-2.56c-3.413-3.413-3.413-8.533,0-11.947l11.947-11.947 c3.413-3.413,8.533-3.413,11.947,0c3.413,3.413,3.413,8.533,0,11.947l-11.947,11.947 C243.48,297.813,241.773,298.667,239.213,298.667z"/> <path d="M239.213,512H17.347c-5.12,0-8.533-3.413-8.533-8.533V8.533C8.813,3.413,12.227,0,17.347,0h221.867 c5.12,0,8.533,3.413,8.533,8.533V112.64l81.92-81.92c3.413-3.413,8.533-3.413,11.947,0l157.013,157.013 c3.413,3.413,3.413,8.533,0,11.947l-250.88,250.88v52.907C247.747,508.587,244.333,512,239.213,512z M25.88,494.933h204.8v-47.787 c0-2.56,0.853-4.267,2.56-5.973l247.467-247.467L335.64,48.64l-90.453,90.453c-2.56,2.56-5.973,3.413-9.387,1.707 c-3.413-0.853-5.12-4.267-5.12-7.68V17.067H25.88V494.933z"/> </g> </g>
</svg>